<?xml version="1.0" encoding="UTF-8" standalone="no"?>
<svg
   xmlns:dc="http://purl.org/dc/elements/1.1/"
   xmlns:cc="http://creativecommons.org/ns#"
   xmlns:rdf="http://www.w3.org/1999/02/22-rdf-syntax-ns#"
   xmlns:svg="http://www.w3.org/2000/svg"
   xmlns="http://www.w3.org/2000/svg"
   xml:space="preserve"
   enable-background="new 0 0 579.333 398.667"
   viewBox="0 0 579.333 398.667"
   height="398.667px"
   width="579.333px"
   y="0px"
   x="0px"
   id="Calque_1"
   version="1.1"><metadata
     id="metadata59"><rdf:RDF><cc:Work
         rdf:about=""><dc:format>image/svg+xml</dc:format><dc:type
           rdf:resource="http://purl.org/dc/dcmitype/StillImage" /></cc:Work></rdf:RDF></metadata><defs
     id="defs57" /><g
     id="g52"><g
       id="g32"><rect
         id="rect2"
         height="73.989"
         width="8.65"
         fill="#31B7BC"
         y="110.049"
         x="262.54" /><rect
         id="rect4"
         height="42.069"
         width="8.579"
         fill="#31B7BC"
         y="141.969"
         x="286.858" /><circle
         id="circle6"
         r="5.233"
         cy="123.209"
         cx="291.18"
         fill="#31B7BC" /><path
         id="path8"
         d="M175.374,183.539c-8.968,0-10.405-9.312-10.405-20.961c0-1.395-0.038-2.777,0-4.127h21.121h6.899    c0-11.14-7.743-18.571-17.562-18.571c-10.652,0-19.686,9.93-19.686,22.699c0,12.377,8.573,22.489,19.686,22.489    c7.25,0,13.639-4.052,17.216-11.065l-1.024-0.999C187.993,179.215,182.876,183.521,175.374,183.539z M175.427,141.507    c7.819,0,9.074,8.568,9.076,15.278H165.09C164.988,149.649,167.043,141.507,175.427,141.507z"
         fill="#31B7BC" /><path
         id="path10"
         d="M226.793,145.843c0,0-3.879-5.88-12.169-5.88c-8.289,0-13.939,5.012-13.939,12.842    c0,9.386,8.084,10.67,12.087,11.839s12.799,2.025,12.728,9.393c-0.072,7.369-6.926,9.465-11.983,9.465    c-5.059,0-8.863-2.057-12.195-6.239c-0.709,0.497-1.278,0.848-1.278,0.848s4.404,6.967,13.543,6.967    c9.14,0,15.969-5.724,15.969-15.147s-7.463-11.351-11.822-12.519c-5.154-1.382-13.178-1.739-13.178-8.329    c0-3.719,2.984-7.553,10.159-7.553c7.172,0,11.079,5.194,11.079,5.194L226.793,145.843z"
         fill="#31B7BC" /><path
         id="path12"
         d="M436.391,183.539c-8.969,0-10.405-9.312-10.405-20.961c0-1.395-0.038-2.777,0-4.127h21.122h6.899    c0-11.14-7.743-18.571-17.563-18.571c-10.653,0-19.688,9.93-19.688,22.699c0,12.377,8.574,22.489,19.688,22.489    c7.251,0,13.64-4.052,17.217-11.065l-1.024-0.999C449.011,179.215,443.894,183.521,436.391,183.539z M436.444,141.507    c7.819,0,9.074,8.568,9.076,15.278h-19.414C426.004,149.649,428.06,141.507,436.444,141.507z"
         fill="#31B7BC" /><path
         id="path14"
         d="M487.813,145.843c0,0-3.879-5.88-12.17-5.88c-8.29,0-13.94,5.012-13.94,12.842    c0,9.386,8.085,10.67,12.088,11.839s12.8,2.025,12.729,9.393c-0.071,7.369-6.926,9.465-11.983,9.465    c-5.059,0-8.863-2.057-12.195-6.239c-0.709,0.497-1.278,0.848-1.278,0.848s4.404,6.967,13.544,6.967    c9.141,0,15.97-5.724,15.97-15.147s-7.464-11.351-11.822-12.519c-5.154-1.382-13.18-1.739-13.18-8.329    c0-3.719,2.985-7.553,10.159-7.553c7.173,0,11.079,5.194,11.079,5.194L487.813,145.843z"
         fill="#31B7BC" /><path
         id="path16"
         d="M399.548,151.612v-9.643h-8.487v42.068h8.487v-22.89c-0.033-7.457,5.604-19.845,15.024-18.458    c0.037-0.721,0.32-1.7,0.32-1.7C408.914,140.518,403.229,142.946,399.548,151.612z"
         fill="#31B7BC" /><path
         id="path18"
         d="M148.194,147.979c0.001-0.022,0.001-0.043,0.001-0.065h-0.004c0-24.07-17.517-35.789-34.172-35.789H94.197    v26.135v19.57v26.135h19.822c16.656,0,34.172-11.718,34.172-35.789h0.004c0-0.022,0-0.043-0.001-0.065h0.001    c0-0.022,0-0.044-0.001-0.065c0.001-0.022,0.001-0.044,0.001-0.066H148.194z M138.442,148.078    c0,25.205-15.283,34.343-25.182,34.343h-10.369V158.61v-21.13v-23.811h10.369c9.899,0,25.182,9.138,25.182,34.343V148.078z"
         fill="#EC6608" /><path
         id="path20"
         d="M254.371,266.118c0-0.018,0.002-0.034,0.002-0.052h-0.002c-0.055-12.349-9.547-22.344-21.253-22.344    c-11.704,0-21.196,9.995-21.25,22.344h-0.002c0,0.018,0.001,0.034,0.001,0.052s-0.001,0.034-0.001,0.052h0.002    c0.054,12.35,9.546,22.345,21.25,22.345c11.707,0,21.199-9.996,21.253-22.345h0.002    C254.373,266.152,254.371,266.136,254.371,266.118z M233.118,286.968c-10.804,0-12.044-9.33-12.048-20.85    c0.004-11.52,1.244-20.85,12.048-20.85c10.806,0,12.046,9.33,12.05,20.85C245.164,277.638,243.924,286.968,233.118,286.968z"
         fill="#EC6608" /><path
         id="path22"
         d="M272.287,255.342v-9.556h-8.414v41.689h8.414v-22.684c-0.035-7.39,5.551-19.667,14.889-18.291    c0.035-0.714,0.314-1.685,0.314-1.685C281.568,244.347,275.934,246.754,272.287,255.342z"
         fill="#EC6608" /><path
         id="path24"
         d="M206.024,266.066c0-12.719-9.476-22.477-21.389-22.477c-6.986,0-10.991,5.578-13.028,9.068v-38.655h-8.484    v73.245h8.484v-7.668c2.354,3.629,5.41,8.936,13.028,8.936C196.34,288.515,206.024,278.922,206.024,266.066z M184.635,286.906    c-5.616,0-12.009-5.209-13.028-12.377v-17.575c1.523-6.659,7.377-11.686,13.028-11.686c10.544,0,12.049,10.046,12.049,20.85    C196.685,276.251,195.439,286.906,184.635,286.906z"
         fill="#EC6608" /><path
         id="path26"
         d="M310.99,288.515c7.619,0,10.676-5.307,13.027-8.936v7.668h8.484v-73.245h-8.484v38.655    c-2.035-3.491-6.041-9.068-13.027-9.068c-11.914,0-21.389,9.758-21.389,22.477C289.602,278.922,299.285,288.515,310.99,288.515z     M298.939,266.118c0-10.804,1.508-20.85,12.051-20.85c5.65,0,11.504,5.027,13.027,11.686v17.575    c-1.018,7.168-7.41,12.377-13.027,12.377C300.188,286.906,298.939,276.251,298.939,266.118z"
         fill="#EC6608" /><polygon
         id="polygon28"
         points="101.049,217.855 108.847,214.957 115.17,230.343 113.853,231.082   "
         fill="#EC6608" /><path
         id="path30"
         d="M111.431,243.723c-10.626,0-14.754,5.533-14.754,5.533l1.282,1.176c1.212-0.932,4.04-4.936,13.085-4.936    c8.747,0,8.291,9.397,8.291,9.397v8.427c-4.387-0.028-27.577-0.438-27.577,13.916c0,11.381,10.258,11.381,14.613,11.381    c5.271,0,11.092-2.238,12.963-6.56v5.419h8.431c0,0,0-31.021,0-32.583C127.766,252.048,125.5,243.723,111.431,243.723z     M109.006,286.589c-7.298,0-8.088-5.771-8.088-9.67c0-9.721,7.385-11.703,18.417-11.774v13.101    C118.937,281.932,113.619,286.589,109.006,286.589z"
         fill="#EC6608" /></g><g
       id="g38"><polygon
         id="polygon34"
         points="372.58,142.02 353.236,160.984 333.709,141.969 306.424,141.969 329.424,164.366 349.788,164.366     356.709,164.366 356.714,164.366 379.506,142.02   "
         fill="#31B7BC" /><polygon
         id="polygon36"
         points="381.427,110.1 362.083,129.064 342.556,110.049 315.271,110.049 338.271,132.446 358.635,132.446     365.556,132.446 365.561,132.446 388.353,110.1   "
         fill="#31B7BC" /></g><g
       id="g42"><path
         id="path40"
         d="M347.339,278.595c-2.74,0.016-4.854,2.162-4.848,4.924    c0.006,2.844,2.26,5.064,5.076,4.994c2.641-0.064,4.885-2.342,4.93-5C352.544,280.794,350.22,278.578,347.339,278.595z"
         fill="#EC6608"
         clip-rule="evenodd"
         fill-rule="evenodd" /></g><g
       id="g46"><path
         id="path44"
         d="M364.605,278.595c-2.74,0.016-4.854,2.162-4.848,4.924    c0.006,2.844,2.26,5.064,5.076,4.994c2.641-0.064,4.885-2.342,4.93-5C369.811,280.794,367.486,278.578,364.605,278.595z"
         fill="#EC6608"
         clip-rule="evenodd"
         fill-rule="evenodd" /></g><g
       id="g50"><path
         id="path48"
         d="M381.897,278.595c-2.74,0.016-4.854,2.162-4.848,4.924    c0.006,2.844,2.26,5.064,5.076,4.994c2.641-0.064,4.885-2.342,4.93-5C387.103,280.794,384.778,278.578,381.897,278.595z"
         fill="#EC6608"
         clip-rule="evenodd"
         fill-rule="evenodd" /></g></g></svg>